<mxfile host="app.diagrams.net" agent="Mozilla/5.0 (X11; Linux x86_64) AppleWebKit/537.36 (KHTML, like Gecko) Chrome/139.0.0.0 Safari/537.36" version="28.2.3">
  <diagram name="Page-1" id="OYQhzDEpBorx9gBrrj9l">
    <mxGraphModel dx="1042" dy="1736" grid="1" gridSize="10" guides="1" tooltips="1" connect="1" arrows="1" fold="1" page="1" pageScale="1" pageWidth="850" pageHeight="1100" math="0" shadow="0">
      <root>
        <mxCell id="0" />
        <mxCell id="1" parent="0" />
        <mxCell id="XZHBj3AqC11IsxEpzGjf-10" style="edgeStyle=orthogonalEdgeStyle;rounded=0;orthogonalLoop=1;jettySize=auto;html=1;exitX=0.25;exitY=0;exitDx=0;exitDy=0;entryX=0;entryY=0.5;entryDx=0;entryDy=0;dashed=1;" edge="1" parent="1" source="XZHBj3AqC11IsxEpzGjf-1" target="XZHBj3AqC11IsxEpzGjf-4">
          <mxGeometry relative="1" as="geometry" />
        </mxCell>
        <mxCell id="XZHBj3AqC11IsxEpzGjf-1" value="Planner" style="rounded=0;whiteSpace=wrap;html=1;" vertex="1" parent="1">
          <mxGeometry x="150" y="310" width="120" height="60" as="geometry" />
        </mxCell>
        <mxCell id="XZHBj3AqC11IsxEpzGjf-12" style="edgeStyle=orthogonalEdgeStyle;rounded=0;orthogonalLoop=1;jettySize=auto;html=1;exitX=0.75;exitY=0;exitDx=0;exitDy=0;entryX=1;entryY=0.5;entryDx=0;entryDy=0;dashed=1;" edge="1" parent="1" source="XZHBj3AqC11IsxEpzGjf-2" target="XZHBj3AqC11IsxEpzGjf-4">
          <mxGeometry relative="1" as="geometry" />
        </mxCell>
        <mxCell id="XZHBj3AqC11IsxEpzGjf-17" style="edgeStyle=orthogonalEdgeStyle;rounded=0;orthogonalLoop=1;jettySize=auto;html=1;exitX=0.75;exitY=1;exitDx=0;exitDy=0;entryX=0;entryY=0.25;entryDx=0;entryDy=0;dashed=1;" edge="1" parent="1" source="XZHBj3AqC11IsxEpzGjf-2" target="XZHBj3AqC11IsxEpzGjf-15">
          <mxGeometry relative="1" as="geometry" />
        </mxCell>
        <mxCell id="XZHBj3AqC11IsxEpzGjf-2" value="Executor" style="rounded=0;whiteSpace=wrap;html=1;" vertex="1" parent="1">
          <mxGeometry x="530" y="310" width="120" height="60" as="geometry" />
        </mxCell>
        <mxCell id="XZHBj3AqC11IsxEpzGjf-11" style="edgeStyle=orthogonalEdgeStyle;rounded=0;orthogonalLoop=1;jettySize=auto;html=1;exitX=0.75;exitY=0;exitDx=0;exitDy=0;entryX=0.75;entryY=1;entryDx=0;entryDy=0;dashed=1;" edge="1" parent="1" source="XZHBj3AqC11IsxEpzGjf-3" target="XZHBj3AqC11IsxEpzGjf-4">
          <mxGeometry relative="1" as="geometry" />
        </mxCell>
        <mxCell id="XZHBj3AqC11IsxEpzGjf-18" style="edgeStyle=orthogonalEdgeStyle;rounded=0;orthogonalLoop=1;jettySize=auto;html=1;exitX=0.75;exitY=1;exitDx=0;exitDy=0;entryX=0.75;entryY=0;entryDx=0;entryDy=0;dashed=1;" edge="1" parent="1" source="XZHBj3AqC11IsxEpzGjf-3" target="XZHBj3AqC11IsxEpzGjf-13">
          <mxGeometry relative="1" as="geometry" />
        </mxCell>
        <mxCell id="XZHBj3AqC11IsxEpzGjf-3" value="Coder" style="rounded=0;whiteSpace=wrap;html=1;" vertex="1" parent="1">
          <mxGeometry x="350" y="310" width="120" height="60" as="geometry" />
        </mxCell>
        <mxCell id="XZHBj3AqC11IsxEpzGjf-5" style="edgeStyle=orthogonalEdgeStyle;rounded=0;orthogonalLoop=1;jettySize=auto;html=1;exitX=0;exitY=1;exitDx=0;exitDy=0;entryX=0.5;entryY=0;entryDx=0;entryDy=0;" edge="1" parent="1" source="XZHBj3AqC11IsxEpzGjf-4" target="XZHBj3AqC11IsxEpzGjf-1">
          <mxGeometry relative="1" as="geometry" />
        </mxCell>
        <mxCell id="XZHBj3AqC11IsxEpzGjf-6" style="edgeStyle=orthogonalEdgeStyle;rounded=0;orthogonalLoop=1;jettySize=auto;html=1;exitX=0.5;exitY=1;exitDx=0;exitDy=0;entryX=0.5;entryY=0;entryDx=0;entryDy=0;" edge="1" parent="1" source="XZHBj3AqC11IsxEpzGjf-4" target="XZHBj3AqC11IsxEpzGjf-3">
          <mxGeometry relative="1" as="geometry" />
        </mxCell>
        <mxCell id="XZHBj3AqC11IsxEpzGjf-7" style="edgeStyle=orthogonalEdgeStyle;rounded=0;orthogonalLoop=1;jettySize=auto;html=1;exitX=1;exitY=1;exitDx=0;exitDy=0;entryX=0.5;entryY=0;entryDx=0;entryDy=0;" edge="1" parent="1" source="XZHBj3AqC11IsxEpzGjf-4" target="XZHBj3AqC11IsxEpzGjf-2">
          <mxGeometry relative="1" as="geometry" />
        </mxCell>
        <mxCell id="XZHBj3AqC11IsxEpzGjf-4" value="Supervisor" style="rounded=0;whiteSpace=wrap;html=1;" vertex="1" parent="1">
          <mxGeometry x="350" y="140" width="120" height="60" as="geometry" />
        </mxCell>
        <mxCell id="XZHBj3AqC11IsxEpzGjf-9" style="edgeStyle=orthogonalEdgeStyle;rounded=0;orthogonalLoop=1;jettySize=auto;html=1;exitX=0.5;exitY=1;exitDx=0;exitDy=0;entryX=0.5;entryY=0;entryDx=0;entryDy=0;" edge="1" parent="1" source="XZHBj3AqC11IsxEpzGjf-8" target="XZHBj3AqC11IsxEpzGjf-4">
          <mxGeometry relative="1" as="geometry" />
        </mxCell>
        <mxCell id="XZHBj3AqC11IsxEpzGjf-8" value="__START__" style="rounded=0;whiteSpace=wrap;html=1;" vertex="1" parent="1">
          <mxGeometry x="350" y="-30" width="120" height="60" as="geometry" />
        </mxCell>
        <mxCell id="XZHBj3AqC11IsxEpzGjf-14" style="edgeStyle=orthogonalEdgeStyle;rounded=0;orthogonalLoop=1;jettySize=auto;html=1;exitX=0.5;exitY=0;exitDx=0;exitDy=0;entryX=0.5;entryY=1;entryDx=0;entryDy=0;" edge="1" parent="1" source="XZHBj3AqC11IsxEpzGjf-13" target="XZHBj3AqC11IsxEpzGjf-3">
          <mxGeometry relative="1" as="geometry" />
        </mxCell>
        <mxCell id="XZHBj3AqC11IsxEpzGjf-13" value="Tools" style="rounded=0;whiteSpace=wrap;html=1;" vertex="1" parent="1">
          <mxGeometry x="350" y="430" width="120" height="60" as="geometry" />
        </mxCell>
        <mxCell id="XZHBj3AqC11IsxEpzGjf-16" style="edgeStyle=orthogonalEdgeStyle;rounded=0;orthogonalLoop=1;jettySize=auto;html=1;exitX=0;exitY=0.5;exitDx=0;exitDy=0;entryX=0.5;entryY=1;entryDx=0;entryDy=0;" edge="1" parent="1" source="XZHBj3AqC11IsxEpzGjf-15" target="XZHBj3AqC11IsxEpzGjf-2">
          <mxGeometry relative="1" as="geometry" />
        </mxCell>
        <mxCell id="XZHBj3AqC11IsxEpzGjf-15" value="Tools" style="rounded=0;whiteSpace=wrap;html=1;" vertex="1" parent="1">
          <mxGeometry x="680" y="400" width="120" height="60" as="geometry" />
        </mxCell>
      </root>
    </mxGraphModel>
  </diagram>
</mxfile>
